<svg width="800" height="800" viewBox="0 0 800 800" xmlns="http://www.w3.org/2000/svg">
  <defs>
    <linearGradient id="grad1" x1="0%" y1="0%" x2="100%" y2="100%">
      <stop offset="0%" stop-color="#00f2fe" stop-opacity="0.7" />
      <stop offset="100%" stop-color="#9d00ff" stop-opacity="0.7" />
    </linearGradient>
    <radialGradient id="radial1" cx="50%" cy="50%" r="50%" fx="50%" fy="50%">
      <stop offset="0%" stop-color="#00f2fe" stop-opacity="0.2" />
      <stop offset="100%" stop-color="#00f2fe" stop-opacity="0" />
    </radialGradient>
    <radialGradient id="radial2" cx="50%" cy="50%" r="50%" fx="50%" fy="50%">
      <stop offset="0%" stop-color="#9d00ff" stop-opacity="0.2" />
      <stop offset="100%" stop-color="#9d00ff" stop-opacity="0" />
    </radialGradient>
  </defs>
  
  <!-- Background elements -->
  <circle cx="400" cy="400" r="300" fill="url(#radial1)" />
  <circle cx="400" cy="400" r="200" fill="url(#radial2)" />
  
  <!-- Central node -->
  <circle cx="400" cy="400" r="15" fill="#00f2fe" />
  
  <!-- Inner ring nodes -->
  <circle cx="300" cy="400" r="8" fill="#9d00ff" />
  <circle cx="500" cy="400" r="8" fill="#9d00ff" />
  <circle cx="400" cy="300" r="8" fill="#9d00ff" />
  <circle cx="400" cy="500" r="8" fill="#9d00ff" />
  <circle cx="340" cy="340" r="8" fill="#9d00ff" />
  <circle cx="460" cy="340" r="8" fill="#9d00ff" />
  <circle cx="340" cy="460" r="8" fill="#9d00ff" />
  <circle cx="460" cy="460" r="8" fill="#9d00ff" />
  
  <!-- Inner ring connections -->
  <line x1="400" y1="400" x2="300" y2="400" stroke="#00f2fe" stroke-width="1.5" opacity="0.6" />
  <line x1="400" y1="400" x2="500" y2="400" stroke="#00f2fe" stroke-width="1.5" opacity="0.6" />
  <line x1="400" y1="400" x2="400" y2="300" stroke="#00f2fe" stroke-width="1.5" opacity="0.6" />
  <line x1="400" y1="400" x2="400" y2="500" stroke="#00f2fe" stroke-width="1.5" opacity="0.6" />
  <line x1="400" y1="400" x2="340" y2="340" stroke="#00f2fe" stroke-width="1.5" opacity="0.6" />
  <line x1="400" y1="400" x2="460" y2="340" stroke="#00f2fe" stroke-width="1.5" opacity="0.6" />
  <line x1="400" y1="400" x2="340" y2="460" stroke="#00f2fe" stroke-width="1.5" opacity="0.6" />
  <line x1="400" y1="400" x2="460" y2="460" stroke="#00f2fe" stroke-width="1.5" opacity="0.6" />
  
  <!-- Outer ring nodes -->
  <circle cx="200" cy="400" r="6" fill="#00f2fe" />
  <circle cx="600" cy="400" r="6" fill="#00f2fe" />
  <circle cx="400" cy="200" r="6" fill="#00f2fe" />
  <circle cx="400" cy="600" r="6" fill="#00f2fe" />
  <circle cx="265" cy="265" r="6" fill="#00f2fe" />
  <circle cx="535" cy="265" r="6" fill="#00f2fe" />
  <circle cx="265" cy="535" r="6" fill="#00f2fe" />
  <circle cx="535" cy="535" r="6" fill="#00f2fe" />
  
  <!-- Outer ring connections -->
  <line x1="300" y1="400" x2="200" y2="400" stroke="#9d00ff" stroke-width="1" opacity="0.4" />
  <line x1="500" y1="400" x2="600" y2="400" stroke="#9d00ff" stroke-width="1" opacity="0.4" />
  <line x1="400" y1="300" x2="400" y2="200" stroke="#9d00ff" stroke-width="1" opacity="0.4" />
  <line x1="400" y1="500" x2="400" y2="600" stroke="#9d00ff" stroke-width="1" opacity="0.4" />
  <line x1="340" y1="340" x2="265" y2="265" stroke="#9d00ff" stroke-width="1" opacity="0.4" />
  <line x1="460" y1="340" x2="535" y2="265" stroke="#9d00ff" stroke-width="1" opacity="0.4" />
  <line x1="340" y1="460" x2="265" y2="535" stroke="#9d00ff" stroke-width="1" opacity="0.4" />
  <line x1="460" y1="460" x2="535" y2="535" stroke="#9d00ff" stroke-width="1" opacity="0.4" />
  
  <!-- Interconnecting lines -->
  <line x1="300" y1="400" x2="400" y2="300" stroke="url(#grad1)" stroke-width="0.8" opacity="0.3" />
  <line x1="400" y1="300" x2="500" y2="400" stroke="url(#grad1)" stroke-width="0.8" opacity="0.3" />
  <line x1="500" y1="400" x2="400" y2="500" stroke="url(#grad1)" stroke-width="0.8" opacity="0.3" />
  <line x1="400" y1="500" x2="300" y2="400" stroke="url(#grad1)" stroke-width="0.8" opacity="0.3" />
  
  <line x1="340" y1="340" x2="460" y2="340" stroke="url(#grad1)" stroke-width="0.8" opacity="0.3" />
  <line x1="460" y1="340" x2="460" y2="460" stroke="url(#grad1)" stroke-width="0.8" opacity="0.3" />
  <line x1="460" y1="460" x2="340" y2="460" stroke="url(#grad1)" stroke-width="0.8" opacity="0.3" />
  <line x1="340" y1="460" x2="340" y2="340" stroke="url(#grad1)" stroke-width="0.8" opacity="0.3" />
</svg>
